<mxfile host="65bd71144e">
    <diagram name="Page-1" id="-bV8oAyhePCD1Yp3gxoo">
        <mxGraphModel dx="278" dy="461" grid="0" gridSize="10" guides="1" tooltips="1" connect="1" arrows="0" fold="1" page="1" pageScale="1" pageWidth="1100" pageHeight="850" background="none" math="0" shadow="0">
            <root>
                <object label="" id="0">
                    <mxCell/>
                </object>
                <mxCell id="1" parent="0"/>
                <mxCell id="dd1BdkEe9ov50hIlFdav-16" style="edgeStyle=orthogonalEdgeStyle;rounded=0;orthogonalLoop=1;jettySize=auto;html=1;exitX=0.5;exitY=1;exitDx=0;exitDy=0;entryX=0;entryY=0.5;entryDx=0;entryDy=0;endArrow=ERoneToMany;endFill=0;startArrow=ERmandOne;startFill=0;" parent="1" source="zyWTynDUfDF3k8TMz7bk-305" target="d92FIJJa25exs1OfrTLI-37" edge="1">
                    <mxGeometry relative="1" as="geometry">
                        <Array as="points">
                            <mxPoint x="615" y="228"/>
                            <mxPoint x="831" y="228"/>
                        </Array>
                    </mxGeometry>
                </mxCell>
                <mxCell id="zyWTynDUfDF3k8TMz7bk-305" value="Agency" style="whiteSpace=wrap;html=1;align=center;labelBackgroundColor=none;rounded=0;backgroundOutline=0;" parent="1" vertex="1">
                    <mxGeometry x="565" y="99" width="100" height="40" as="geometry"/>
                </mxCell>
                <mxCell id="zyWTynDUfDF3k8TMz7bk-308" value="Drivers" style="whiteSpace=wrap;html=1;align=center;labelBackgroundColor=none;rounded=0;backgroundOutline=0;" parent="1" vertex="1">
                    <mxGeometry x="528" y="334" width="100" height="40" as="geometry"/>
                </mxCell>
                <mxCell id="dd1BdkEe9ov50hIlFdav-20" style="edgeStyle=orthogonalEdgeStyle;rounded=0;orthogonalLoop=1;jettySize=auto;html=1;exitX=1;exitY=0.5;exitDx=0;exitDy=0;entryX=0;entryY=0.5;entryDx=0;entryDy=0;endArrow=ERzeroToMany;endFill=0;startArrow=ERmandOne;startFill=0;" parent="1" source="zyWTynDUfDF3k8TMz7bk-309" target="zyWTynDUfDF3k8TMz7bk-308" edge="1">
                    <mxGeometry relative="1" as="geometry"/>
                </mxCell>
                <mxCell id="zyWTynDUfDF3k8TMz7bk-309" value="Staff" style="whiteSpace=wrap;html=1;align=center;labelBackgroundColor=none;rounded=0;backgroundOutline=0;" parent="1" vertex="1">
                    <mxGeometry x="243" y="310" width="100" height="40" as="geometry"/>
                </mxCell>
                <mxCell id="dd1BdkEe9ov50hIlFdav-28" style="edgeStyle=orthogonalEdgeStyle;rounded=0;orthogonalLoop=1;jettySize=auto;html=1;exitX=0.85;exitY=0;exitDx=0;exitDy=0;entryX=0;entryY=0.5;entryDx=0;entryDy=0;exitPerimeter=0;endArrow=ERzeroToMany;endFill=0;startArrow=ERmandOne;startFill=0;" parent="1" source="zyWTynDUfDF3k8TMz7bk-310" target="zyWTynDUfDF3k8TMz7bk-312" edge="1">
                    <mxGeometry relative="1" as="geometry">
                        <Array as="points">
                            <mxPoint x="379" y="502"/>
                        </Array>
                    </mxGeometry>
                </mxCell>
                <mxCell id="zyWTynDUfDF3k8TMz7bk-310" value="Ticket" style="whiteSpace=wrap;html=1;align=center;labelBackgroundColor=none;rounded=0;backgroundOutline=0;" parent="1" vertex="1">
                    <mxGeometry x="294" y="591" width="100" height="40" as="geometry"/>
                </mxCell>
                <mxCell id="dd1BdkEe9ov50hIlFdav-27" style="edgeStyle=orthogonalEdgeStyle;rounded=0;orthogonalLoop=1;jettySize=auto;html=1;exitX=0;exitY=0.5;exitDx=0;exitDy=0;entryX=1;entryY=0.5;entryDx=0;entryDy=0;endArrow=ERzeroToMany;endFill=0;startArrow=ERzeroToMany;startFill=0;" parent="1" source="zyWTynDUfDF3k8TMz7bk-311" target="zyWTynDUfDF3k8TMz7bk-310" edge="1">
                    <mxGeometry relative="1" as="geometry"/>
                </mxCell>
                <mxCell id="zyWTynDUfDF3k8TMz7bk-311" value="Passenger" style="whiteSpace=wrap;html=1;align=center;labelBackgroundColor=none;rounded=0;backgroundOutline=0;" parent="1" vertex="1">
                    <mxGeometry x="685" y="599" width="100" height="40" as="geometry"/>
                </mxCell>
                <mxCell id="zyWTynDUfDF3k8TMz7bk-312" value="Goods" style="whiteSpace=wrap;html=1;align=center;labelBackgroundColor=none;rounded=0;backgroundOutline=0;" parent="1" vertex="1">
                    <mxGeometry x="820" y="482" width="100" height="40" as="geometry"/>
                </mxCell>
                <mxCell id="cEiwVnGeLsNNu_YkjOEf-14" style="edgeStyle=orthogonalEdgeStyle;rounded=0;orthogonalLoop=1;jettySize=auto;html=1;exitX=0.5;exitY=1;exitDx=0;exitDy=0;entryX=0.5;entryY=0;entryDx=0;entryDy=0;labelBackgroundColor=none;fontColor=default;backgroundOutline=0;endArrow=none;startFill=0;" parent="1" source="d92FIJJa25exs1OfrTLI-1" target="zyWTynDUfDF3k8TMz7bk-304" edge="1">
                    <mxGeometry relative="1" as="geometry"/>
                </mxCell>
                <mxCell id="d92FIJJa25exs1OfrTLI-1" value="user name" style="ellipse;whiteSpace=wrap;html=1;align=center;labelBackgroundColor=none;rounded=0;backgroundOutline=0;" parent="1" vertex="1">
                    <mxGeometry x="175" y="18" width="100" height="40" as="geometry"/>
                </mxCell>
                <mxCell id="cEiwVnGeLsNNu_YkjOEf-13" style="edgeStyle=orthogonalEdgeStyle;rounded=0;orthogonalLoop=1;jettySize=auto;html=1;exitX=0.5;exitY=1;exitDx=0;exitDy=0;entryX=0;entryY=0.5;entryDx=0;entryDy=0;labelBackgroundColor=none;fontColor=default;backgroundOutline=0;endArrow=none;startFill=0;" parent="1" source="d92FIJJa25exs1OfrTLI-3" target="zyWTynDUfDF3k8TMz7bk-304" edge="1">
                    <mxGeometry relative="1" as="geometry"/>
                </mxCell>
                <mxCell id="d92FIJJa25exs1OfrTLI-3" value="password" style="ellipse;whiteSpace=wrap;html=1;align=center;labelBackgroundColor=none;rounded=0;backgroundOutline=0;" parent="1" vertex="1">
                    <mxGeometry x="41" y="41" width="100" height="40" as="geometry"/>
                </mxCell>
                <mxCell id="cEiwVnGeLsNNu_YkjOEf-39" value="" style="edgeStyle=orthogonalEdgeStyle;rounded=0;orthogonalLoop=1;jettySize=auto;html=1;labelBackgroundColor=none;fontColor=default;backgroundOutline=0;endArrow=none;startFill=0;" parent="1" source="d92FIJJa25exs1OfrTLI-4" target="zyWTynDUfDF3k8TMz7bk-305" edge="1">
                    <mxGeometry relative="1" as="geometry">
                        <Array as="points">
                            <mxPoint x="635" y="96"/>
                            <mxPoint x="635" y="96"/>
                        </Array>
                    </mxGeometry>
                </mxCell>
                <mxCell id="d92FIJJa25exs1OfrTLI-4" value="name" style="ellipse;whiteSpace=wrap;html=1;align=center;labelBackgroundColor=none;rounded=0;backgroundOutline=0;" parent="1" vertex="1">
                    <mxGeometry x="585" y="22" width="100" height="40" as="geometry"/>
                </mxCell>
                <mxCell id="-8xyfi9ZjJV_24Lj2asy-28" style="edgeStyle=orthogonalEdgeStyle;rounded=0;orthogonalLoop=1;jettySize=auto;html=1;exitX=0;exitY=0.5;exitDx=0;exitDy=0;endArrow=none;startFill=0;entryX=1;entryY=0.5;entryDx=0;entryDy=0;" parent="1" source="d92FIJJa25exs1OfrTLI-6" target="zyWTynDUfDF3k8TMz7bk-305" edge="1">
                    <mxGeometry relative="1" as="geometry">
                        <mxPoint x="720" y="119" as="targetPoint"/>
                        <Array as="points">
                            <mxPoint x="735" y="108"/>
                            <mxPoint x="665" y="107"/>
                        </Array>
                    </mxGeometry>
                </mxCell>
                <mxCell id="d92FIJJa25exs1OfrTLI-6" value="description" style="ellipse;whiteSpace=wrap;html=1;align=center;labelBackgroundColor=none;rounded=0;backgroundOutline=0;" parent="1" vertex="1">
                    <mxGeometry x="748" y="88" width="100" height="40" as="geometry"/>
                </mxCell>
                <mxCell id="d92FIJJa25exs1OfrTLI-37" value="Bus" style="whiteSpace=wrap;html=1;align=center;labelBackgroundColor=none;rounded=0;backgroundOutline=0;" parent="1" vertex="1">
                    <mxGeometry x="831" y="209" width="100" height="40" as="geometry"/>
                </mxCell>
                <mxCell id="d92FIJJa25exs1OfrTLI-40" value="Bus-brand" style="ellipse;whiteSpace=wrap;html=1;align=center;labelBackgroundColor=none;rounded=0;backgroundOutline=0;" parent="1" vertex="1">
                    <mxGeometry x="983" y="120" width="100" height="40" as="geometry"/>
                </mxCell>
                <mxCell id="cEiwVnGeLsNNu_YkjOEf-31" style="edgeStyle=orthogonalEdgeStyle;rounded=0;orthogonalLoop=1;jettySize=auto;html=1;exitX=0;exitY=0.5;exitDx=0;exitDy=0;entryX=0.64;entryY=0;entryDx=0;entryDy=0;entryPerimeter=0;labelBackgroundColor=none;fontColor=default;backgroundOutline=0;endArrow=none;startFill=0;" parent="1" source="d92FIJJa25exs1OfrTLI-41" target="d92FIJJa25exs1OfrTLI-37" edge="1">
                    <mxGeometry relative="1" as="geometry">
                        <mxPoint x="872" y="205" as="targetPoint"/>
                    </mxGeometry>
                </mxCell>
                <mxCell id="d92FIJJa25exs1OfrTLI-41" value="Bus-type" style="ellipse;whiteSpace=wrap;html=1;align=center;labelBackgroundColor=none;rounded=0;backgroundOutline=0;" parent="1" vertex="1">
                    <mxGeometry x="947" y="71" width="100" height="40" as="geometry"/>
                </mxCell>
                <mxCell id="cEiwVnGeLsNNu_YkjOEf-30" style="edgeStyle=orthogonalEdgeStyle;rounded=0;orthogonalLoop=1;jettySize=auto;html=1;exitX=0;exitY=0.5;exitDx=0;exitDy=0;entryX=0.75;entryY=1;entryDx=0;entryDy=0;labelBackgroundColor=none;fontColor=default;backgroundOutline=0;endArrow=none;startFill=0;" parent="1" source="d92FIJJa25exs1OfrTLI-42" target="d92FIJJa25exs1OfrTLI-37" edge="1">
                    <mxGeometry relative="1" as="geometry"/>
                </mxCell>
                <mxCell id="d92FIJJa25exs1OfrTLI-42" value="owner" style="ellipse;whiteSpace=wrap;html=1;align=center;labelBackgroundColor=none;rounded=0;backgroundOutline=0;" parent="1" vertex="1">
                    <mxGeometry x="925" y="336" width="100" height="40" as="geometry"/>
                </mxCell>
                <mxCell id="d92FIJJa25exs1OfrTLI-43" value="Bus-rotation" style="ellipse;whiteSpace=wrap;html=1;align=center;labelBackgroundColor=none;rounded=0;backgroundOutline=0;" parent="1" vertex="1">
                    <mxGeometry x="966" y="289" width="100" height="40" as="geometry"/>
                </mxCell>
                <mxCell id="d92FIJJa25exs1OfrTLI-44" style="edgeStyle=orthogonalEdgeStyle;rounded=0;orthogonalLoop=1;jettySize=auto;html=1;exitX=0;exitY=0.5;exitDx=0;exitDy=0;entryX=1;entryY=0.25;entryDx=0;entryDy=0;labelBackgroundColor=none;fontColor=default;backgroundOutline=0;endArrow=none;startFill=0;" parent="1" source="d92FIJJa25exs1OfrTLI-45" target="d92FIJJa25exs1OfrTLI-37" edge="1">
                    <mxGeometry relative="1" as="geometry"/>
                </mxCell>
                <mxCell id="d92FIJJa25exs1OfrTLI-45" value="model" style="ellipse;whiteSpace=wrap;html=1;align=center;labelBackgroundColor=none;rounded=0;backgroundOutline=0;" parent="1" vertex="1">
                    <mxGeometry x="990" y="176" width="100" height="40" as="geometry"/>
                </mxCell>
                <mxCell id="d92FIJJa25exs1OfrTLI-52" style="edgeStyle=orthogonalEdgeStyle;rounded=0;orthogonalLoop=1;jettySize=auto;html=1;exitX=0;exitY=0.5;exitDx=0;exitDy=0;entryX=1;entryY=0.5;entryDx=0;entryDy=0;labelBackgroundColor=none;fontColor=default;backgroundOutline=0;endArrow=none;startFill=0;" parent="1" source="d92FIJJa25exs1OfrTLI-47" target="d92FIJJa25exs1OfrTLI-37" edge="1">
                    <mxGeometry relative="1" as="geometry"/>
                </mxCell>
                <mxCell id="d92FIJJa25exs1OfrTLI-47" value="total number" style="ellipse;whiteSpace=wrap;html=1;align=center;labelBackgroundColor=none;rounded=0;backgroundOutline=0;" parent="1" vertex="1">
                    <mxGeometry x="987" y="236" width="100" height="40" as="geometry"/>
                </mxCell>
                <mxCell id="d92FIJJa25exs1OfrTLI-49" style="edgeStyle=orthogonalEdgeStyle;rounded=0;orthogonalLoop=1;jettySize=auto;html=1;exitX=0;exitY=0.5;exitDx=0;exitDy=0;entryX=0.91;entryY=0.05;entryDx=0;entryDy=0;entryPerimeter=0;labelBackgroundColor=none;fontColor=default;backgroundOutline=0;endArrow=none;startFill=0;" parent="1" source="d92FIJJa25exs1OfrTLI-40" target="d92FIJJa25exs1OfrTLI-37" edge="1">
                    <mxGeometry relative="1" as="geometry"/>
                </mxCell>
                <mxCell id="d92FIJJa25exs1OfrTLI-50" style="edgeStyle=orthogonalEdgeStyle;rounded=0;orthogonalLoop=1;jettySize=auto;html=1;exitX=0;exitY=0.5;exitDx=0;exitDy=0;entryX=0.87;entryY=0.975;entryDx=0;entryDy=0;entryPerimeter=0;labelBackgroundColor=none;fontColor=default;backgroundOutline=0;endArrow=none;startFill=0;" parent="1" source="d92FIJJa25exs1OfrTLI-43" target="d92FIJJa25exs1OfrTLI-37" edge="1">
                    <mxGeometry relative="1" as="geometry">
                        <mxPoint x="945" y="252" as="targetPoint"/>
                    </mxGeometry>
                </mxCell>
                <mxCell id="cEiwVnGeLsNNu_YkjOEf-2" value="user type" style="ellipse;shape=doubleEllipse;margin=3;whiteSpace=wrap;html=1;align=center;labelBackgroundColor=none;rounded=0;backgroundOutline=0;" parent="1" vertex="1">
                    <mxGeometry x="129" y="160" width="100" height="40" as="geometry"/>
                </mxCell>
                <mxCell id="cEiwVnGeLsNNu_YkjOEf-5" value="Admin" style="ellipse;whiteSpace=wrap;html=1;align=center;labelBackgroundColor=none;rounded=0;backgroundOutline=0;" parent="1" vertex="1">
                    <mxGeometry x="16" y="128" width="100" height="40" as="geometry"/>
                </mxCell>
                <mxCell id="cEiwVnGeLsNNu_YkjOEf-36" style="edgeStyle=orthogonalEdgeStyle;rounded=0;orthogonalLoop=1;jettySize=auto;html=1;exitX=1;exitY=0.5;exitDx=0;exitDy=0;labelBackgroundColor=none;fontColor=default;backgroundOutline=0;endArrow=none;startFill=0;entryX=0.5;entryY=1;entryDx=0;entryDy=0;" parent="1" source="cEiwVnGeLsNNu_YkjOEf-6" target="cEiwVnGeLsNNu_YkjOEf-2" edge="1">
                    <mxGeometry relative="1" as="geometry">
                        <mxPoint x="147" y="223" as="targetPoint"/>
                        <Array as="points">
                            <mxPoint x="129" y="208"/>
                            <mxPoint x="129" y="200"/>
                        </Array>
                    </mxGeometry>
                </mxCell>
                <mxCell id="cEiwVnGeLsNNu_YkjOEf-6" value="user" style="ellipse;whiteSpace=wrap;html=1;align=center;labelBackgroundColor=none;rounded=0;backgroundOutline=0;" parent="1" vertex="1">
                    <mxGeometry x="11" y="188" width="100" height="40" as="geometry"/>
                </mxCell>
                <mxCell id="cEiwVnGeLsNNu_YkjOEf-11" style="edgeStyle=orthogonalEdgeStyle;rounded=0;orthogonalLoop=1;jettySize=auto;html=1;exitX=1;exitY=0.5;exitDx=0;exitDy=0;entryX=0.34;entryY=1;entryDx=0;entryDy=0;entryPerimeter=0;labelBackgroundColor=none;fontColor=default;backgroundOutline=0;endArrow=none;startFill=0;" parent="1" source="cEiwVnGeLsNNu_YkjOEf-2" target="zyWTynDUfDF3k8TMz7bk-304" edge="1">
                    <mxGeometry relative="1" as="geometry">
                        <Array as="points">
                            <mxPoint x="254" y="184"/>
                            <mxPoint x="254" y="146"/>
                        </Array>
                    </mxGeometry>
                </mxCell>
                <mxCell id="cEiwVnGeLsNNu_YkjOEf-15" value="Name" style="ellipse;whiteSpace=wrap;html=1;align=center;labelBackgroundColor=none;rounded=0;backgroundOutline=0;" parent="1" vertex="1">
                    <mxGeometry x="162" y="212" width="100" height="40" as="geometry"/>
                </mxCell>
                <mxCell id="cEiwVnGeLsNNu_YkjOEf-25" style="edgeStyle=orthogonalEdgeStyle;rounded=0;orthogonalLoop=1;jettySize=auto;html=1;exitX=1;exitY=0.5;exitDx=0;exitDy=0;labelBackgroundColor=none;fontColor=default;backgroundOutline=0;endArrow=none;startFill=0;" parent="1" source="cEiwVnGeLsNNu_YkjOEf-16" target="zyWTynDUfDF3k8TMz7bk-309" edge="1">
                    <mxGeometry relative="1" as="geometry">
                        <Array as="points">
                            <mxPoint x="296" y="432"/>
                        </Array>
                    </mxGeometry>
                </mxCell>
                <mxCell id="cEiwVnGeLsNNu_YkjOEf-16" value="Salary" style="ellipse;whiteSpace=wrap;html=1;align=center;labelBackgroundColor=none;rounded=0;backgroundOutline=0;" parent="1" vertex="1">
                    <mxGeometry x="144" y="409" width="100" height="40" as="geometry"/>
                </mxCell>
                <mxCell id="cEiwVnGeLsNNu_YkjOEf-23" style="edgeStyle=orthogonalEdgeStyle;rounded=0;orthogonalLoop=1;jettySize=auto;html=1;exitX=1;exitY=0.5;exitDx=0;exitDy=0;entryX=0.164;entryY=0.968;entryDx=0;entryDy=0;entryPerimeter=0;labelBackgroundColor=none;fontColor=default;backgroundOutline=0;endArrow=none;startFill=0;" parent="1" source="cEiwVnGeLsNNu_YkjOEf-17" target="zyWTynDUfDF3k8TMz7bk-309" edge="1">
                    <mxGeometry relative="1" as="geometry"/>
                </mxCell>
                <mxCell id="cEiwVnGeLsNNu_YkjOEf-17" value="Job" style="ellipse;whiteSpace=wrap;html=1;align=center;labelBackgroundColor=none;rounded=0;backgroundOutline=0;" parent="1" vertex="1">
                    <mxGeometry x="101" y="364" width="100" height="40" as="geometry"/>
                </mxCell>
                <mxCell id="cEiwVnGeLsNNu_YkjOEf-20" style="edgeStyle=orthogonalEdgeStyle;rounded=0;orthogonalLoop=1;jettySize=auto;html=1;exitX=1;exitY=0.5;exitDx=0;exitDy=0;entryX=0;entryY=0.5;entryDx=0;entryDy=0;labelBackgroundColor=none;fontColor=default;backgroundOutline=0;endArrow=none;startFill=0;" parent="1" source="cEiwVnGeLsNNu_YkjOEf-18" target="zyWTynDUfDF3k8TMz7bk-309" edge="1">
                    <mxGeometry relative="1" as="geometry"/>
                </mxCell>
                <mxCell id="cEiwVnGeLsNNu_YkjOEf-18" value="Phone no" style="ellipse;whiteSpace=wrap;html=1;align=center;labelBackgroundColor=none;rounded=0;backgroundOutline=0;" parent="1" vertex="1">
                    <mxGeometry x="104" y="313" width="100" height="40" as="geometry"/>
                </mxCell>
                <mxCell id="cEiwVnGeLsNNu_YkjOEf-27" value="NIC" style="ellipse;whiteSpace=wrap;html=1;align=center;fontStyle=4;labelBackgroundColor=none;rounded=0;backgroundOutline=0;" parent="1" vertex="1">
                    <mxGeometry x="116" y="259" width="100" height="40" as="geometry"/>
                </mxCell>
                <mxCell id="cEiwVnGeLsNNu_YkjOEf-28" style="edgeStyle=orthogonalEdgeStyle;rounded=0;orthogonalLoop=1;jettySize=auto;html=1;exitX=1;exitY=0.5;exitDx=0;exitDy=0;entryX=0.23;entryY=0;entryDx=0;entryDy=0;entryPerimeter=0;labelBackgroundColor=none;fontColor=default;backgroundOutline=0;endArrow=none;startFill=0;" parent="1" source="cEiwVnGeLsNNu_YkjOEf-27" target="zyWTynDUfDF3k8TMz7bk-309" edge="1">
                    <mxGeometry relative="1" as="geometry"/>
                </mxCell>
                <mxCell id="cEiwVnGeLsNNu_YkjOEf-29" style="edgeStyle=orthogonalEdgeStyle;rounded=0;orthogonalLoop=1;jettySize=auto;html=1;exitX=1;exitY=0.5;exitDx=0;exitDy=0;entryX=0.52;entryY=0;entryDx=0;entryDy=0;entryPerimeter=0;labelBackgroundColor=none;fontColor=default;backgroundOutline=0;endArrow=none;startFill=0;" parent="1" source="cEiwVnGeLsNNu_YkjOEf-15" target="zyWTynDUfDF3k8TMz7bk-309" edge="1">
                    <mxGeometry relative="1" as="geometry"/>
                </mxCell>
                <mxCell id="cEiwVnGeLsNNu_YkjOEf-45" style="edgeStyle=orthogonalEdgeStyle;rounded=0;orthogonalLoop=1;jettySize=auto;html=1;exitX=0;exitY=0.5;exitDx=0;exitDy=0;entryX=1;entryY=0.625;entryDx=0;entryDy=0;labelBackgroundColor=none;fontColor=default;backgroundOutline=0;endArrow=none;startFill=0;entryPerimeter=0;" parent="1" source="cEiwVnGeLsNNu_YkjOEf-42" target="zyWTynDUfDF3k8TMz7bk-305" edge="1">
                    <mxGeometry relative="1" as="geometry"/>
                </mxCell>
                <mxCell id="cEiwVnGeLsNNu_YkjOEf-42" value="ID" style="ellipse;whiteSpace=wrap;html=1;align=center;fontStyle=4;labelBackgroundColor=none;rounded=0;backgroundOutline=0;" parent="1" vertex="1">
                    <mxGeometry x="713" y="155" width="100" height="40" as="geometry"/>
                </mxCell>
                <mxCell id="cEiwVnGeLsNNu_YkjOEf-46" value="NIC" style="ellipse;whiteSpace=wrap;html=1;align=center;fontStyle=4;labelBackgroundColor=none;rounded=0;backgroundOutline=0;" parent="1" vertex="1">
                    <mxGeometry x="510" y="240" width="100" height="40" as="geometry"/>
                </mxCell>
                <mxCell id="cEiwVnGeLsNNu_YkjOEf-47" value="name" style="ellipse;whiteSpace=wrap;html=1;align=center;labelBackgroundColor=none;rounded=0;backgroundOutline=0;" parent="1" vertex="1">
                    <mxGeometry x="631" y="258" width="100" height="40" as="geometry"/>
                </mxCell>
                <mxCell id="cEiwVnGeLsNNu_YkjOEf-68" style="edgeStyle=orthogonalEdgeStyle;rounded=0;orthogonalLoop=1;jettySize=auto;html=1;exitX=1;exitY=0.5;exitDx=0;exitDy=0;entryX=0.25;entryY=1;entryDx=0;entryDy=0;labelBackgroundColor=none;fontColor=default;backgroundOutline=0;endArrow=none;startFill=0;" parent="1" source="cEiwVnGeLsNNu_YkjOEf-48" target="zyWTynDUfDF3k8TMz7bk-308" edge="1">
                    <mxGeometry relative="1" as="geometry"/>
                </mxCell>
                <mxCell id="cEiwVnGeLsNNu_YkjOEf-48" value="License-NO" style="ellipse;whiteSpace=wrap;html=1;align=center;labelBackgroundColor=none;rounded=0;backgroundOutline=0;" parent="1" vertex="1">
                    <mxGeometry x="419" y="391" width="100" height="40" as="geometry"/>
                </mxCell>
                <mxCell id="cEiwVnGeLsNNu_YkjOEf-49" value="Ph-NO" style="ellipse;whiteSpace=wrap;html=1;align=center;labelBackgroundColor=none;rounded=0;backgroundOutline=0;" parent="1" vertex="1">
                    <mxGeometry x="522" y="425" width="100" height="40" as="geometry"/>
                </mxCell>
                <mxCell id="cEiwVnGeLsNNu_YkjOEf-50" value="Add" style="ellipse;whiteSpace=wrap;html=1;align=center;labelBackgroundColor=none;rounded=0;backgroundOutline=0;" parent="1" vertex="1">
                    <mxGeometry x="631" y="391" width="100" height="40" as="geometry"/>
                </mxCell>
                <mxCell id="cEiwVnGeLsNNu_YkjOEf-67" style="edgeStyle=orthogonalEdgeStyle;rounded=0;orthogonalLoop=1;jettySize=auto;html=1;exitX=0;exitY=0.5;exitDx=0;exitDy=0;entryX=0.82;entryY=0;entryDx=0;entryDy=0;labelBackgroundColor=none;fontColor=default;endArrow=none;startFill=0;backgroundOutline=0;entryPerimeter=0;" parent="1" target="zyWTynDUfDF3k8TMz7bk-308" edge="1">
                    <mxGeometry relative="1" as="geometry">
                        <mxPoint x="631.0000000000002" y="280" as="sourcePoint"/>
                        <mxPoint x="598" y="340" as="targetPoint"/>
                    </mxGeometry>
                </mxCell>
                <mxCell id="cEiwVnGeLsNNu_YkjOEf-69" style="edgeStyle=orthogonalEdgeStyle;rounded=0;orthogonalLoop=1;jettySize=auto;html=1;exitX=0.5;exitY=0;exitDx=0;exitDy=0;entryX=0.44;entryY=1;entryDx=0;entryDy=0;entryPerimeter=0;labelBackgroundColor=none;fontColor=default;endArrow=none;startFill=0;backgroundOutline=0;" parent="1" source="cEiwVnGeLsNNu_YkjOEf-49" target="zyWTynDUfDF3k8TMz7bk-308" edge="1">
                    <mxGeometry relative="1" as="geometry"/>
                </mxCell>
                <mxCell id="cEiwVnGeLsNNu_YkjOEf-70" style="edgeStyle=orthogonalEdgeStyle;rounded=0;orthogonalLoop=1;jettySize=auto;html=1;exitX=0;exitY=0.5;exitDx=0;exitDy=0;entryX=0.65;entryY=1;entryDx=0;entryDy=0;entryPerimeter=0;labelBackgroundColor=none;fontColor=default;endArrow=none;startFill=0;backgroundOutline=0;" parent="1" source="cEiwVnGeLsNNu_YkjOEf-50" target="zyWTynDUfDF3k8TMz7bk-308" edge="1">
                    <mxGeometry relative="1" as="geometry"/>
                </mxCell>
                <mxCell id="cEiwVnGeLsNNu_YkjOEf-72" style="edgeStyle=orthogonalEdgeStyle;rounded=0;orthogonalLoop=1;jettySize=auto;html=1;exitX=0;exitY=0.5;exitDx=0;exitDy=0;labelBackgroundColor=none;fontColor=default;backgroundOutline=0;endArrow=none;startFill=0;" parent="1" source="cEiwVnGeLsNNu_YkjOEf-71" target="d92FIJJa25exs1OfrTLI-37" edge="1">
                    <mxGeometry relative="1" as="geometry"/>
                </mxCell>
                <mxCell id="cEiwVnGeLsNNu_YkjOEf-71" value="reg-NO" style="ellipse;whiteSpace=wrap;html=1;align=center;fontStyle=4;labelBackgroundColor=none;rounded=0;backgroundOutline=0;" parent="1" vertex="1">
                    <mxGeometry x="909" y="21" width="100" height="40" as="geometry"/>
                </mxCell>
                <mxCell id="cEiwVnGeLsNNu_YkjOEf-89" style="edgeStyle=orthogonalEdgeStyle;rounded=0;orthogonalLoop=1;jettySize=auto;html=1;exitX=0;exitY=0.5;exitDx=0;exitDy=0;entryX=1;entryY=0.5;entryDx=0;entryDy=0;labelBackgroundColor=none;fontColor=default;backgroundOutline=0;endArrow=none;startFill=0;" parent="1" source="cEiwVnGeLsNNu_YkjOEf-73" target="zyWTynDUfDF3k8TMz7bk-310" edge="1">
                    <mxGeometry relative="1" as="geometry">
                        <Array as="points">
                            <mxPoint x="419" y="580"/>
                            <mxPoint x="419" y="601"/>
                            <mxPoint x="394" y="601"/>
                        </Array>
                    </mxGeometry>
                </mxCell>
                <mxCell id="cEiwVnGeLsNNu_YkjOEf-73" value="NO-of-per" style="ellipse;whiteSpace=wrap;html=1;align=center;labelBackgroundColor=none;rounded=0;backgroundOutline=0;" parent="1" vertex="1">
                    <mxGeometry x="471" y="556" width="100" height="40" as="geometry"/>
                </mxCell>
                <mxCell id="cEiwVnGeLsNNu_YkjOEf-74" value="seat NO" style="ellipse;whiteSpace=wrap;html=1;align=center;labelBackgroundColor=none;rounded=0;backgroundOutline=0;" parent="1" vertex="1">
                    <mxGeometry x="427" y="634" width="100" height="40" as="geometry"/>
                </mxCell>
                <mxCell id="cEiwVnGeLsNNu_YkjOEf-75" value="price" style="ellipse;whiteSpace=wrap;html=1;align=center;labelBackgroundColor=none;rounded=0;backgroundOutline=0;" parent="1" vertex="1">
                    <mxGeometry x="378" y="675" width="100" height="40" as="geometry"/>
                </mxCell>
                <mxCell id="cEiwVnGeLsNNu_YkjOEf-76" value="to" style="ellipse;whiteSpace=wrap;html=1;align=center;labelBackgroundColor=none;rounded=0;backgroundOutline=0;" parent="1" vertex="1">
                    <mxGeometry x="111" y="680" width="100" height="40" as="geometry"/>
                </mxCell>
                <mxCell id="cEiwVnGeLsNNu_YkjOEf-84" style="edgeStyle=orthogonalEdgeStyle;rounded=0;orthogonalLoop=1;jettySize=auto;html=1;exitX=1;exitY=0.5;exitDx=0;exitDy=0;entryX=0;entryY=0.5;entryDx=0;entryDy=0;labelBackgroundColor=none;fontColor=default;backgroundOutline=0;endArrow=none;startFill=0;" parent="1" source="cEiwVnGeLsNNu_YkjOEf-77" target="zyWTynDUfDF3k8TMz7bk-310" edge="1">
                    <mxGeometry relative="1" as="geometry"/>
                </mxCell>
                <mxCell id="cEiwVnGeLsNNu_YkjOEf-77" value="from" style="ellipse;whiteSpace=wrap;html=1;align=center;labelBackgroundColor=none;rounded=0;backgroundOutline=0;" parent="1" vertex="1">
                    <mxGeometry x="77" y="632" width="100" height="40" as="geometry"/>
                </mxCell>
                <mxCell id="cEiwVnGeLsNNu_YkjOEf-87" style="edgeStyle=orthogonalEdgeStyle;rounded=0;orthogonalLoop=1;jettySize=auto;html=1;exitX=1;exitY=0.5;exitDx=0;exitDy=0;entryX=0;entryY=0.25;entryDx=0;entryDy=0;labelBackgroundColor=none;fontColor=default;backgroundOutline=0;endArrow=none;startFill=0;" parent="1" source="cEiwVnGeLsNNu_YkjOEf-78" target="zyWTynDUfDF3k8TMz7bk-310" edge="1">
                    <mxGeometry relative="1" as="geometry"/>
                </mxCell>
                <mxCell id="cEiwVnGeLsNNu_YkjOEf-78" value="date" style="ellipse;whiteSpace=wrap;html=1;align=center;labelBackgroundColor=none;rounded=0;backgroundOutline=0;" parent="1" vertex="1">
                    <mxGeometry x="91" y="580" width="100" height="40" as="geometry"/>
                </mxCell>
                <mxCell id="cEiwVnGeLsNNu_YkjOEf-90" style="edgeStyle=orthogonalEdgeStyle;rounded=0;orthogonalLoop=1;jettySize=auto;html=1;exitX=0;exitY=0.5;exitDx=0;exitDy=0;labelBackgroundColor=none;fontColor=default;backgroundOutline=0;endArrow=none;startFill=0;entryX=0.94;entryY=0;entryDx=0;entryDy=0;entryPerimeter=0;" parent="1" source="cEiwVnGeLsNNu_YkjOEf-80" target="zyWTynDUfDF3k8TMz7bk-310" edge="1">
                    <mxGeometry relative="1" as="geometry">
                        <mxPoint x="404" y="558" as="targetPoint"/>
                    </mxGeometry>
                </mxCell>
                <mxCell id="cEiwVnGeLsNNu_YkjOEf-80" value="Pas-name&amp;nbsp;" style="ellipse;whiteSpace=wrap;html=1;align=center;labelBackgroundColor=none;rounded=0;backgroundOutline=0;" parent="1" vertex="1">
                    <mxGeometry x="419" y="519" width="97" height="36" as="geometry"/>
                </mxCell>
                <mxCell id="cEiwVnGeLsNNu_YkjOEf-85" style="edgeStyle=orthogonalEdgeStyle;rounded=0;orthogonalLoop=1;jettySize=auto;html=1;exitX=1;exitY=0.5;exitDx=0;exitDy=0;entryX=0.14;entryY=1;entryDx=0;entryDy=0;entryPerimeter=0;labelBackgroundColor=none;fontColor=default;backgroundOutline=0;endArrow=none;startFill=0;" parent="1" source="cEiwVnGeLsNNu_YkjOEf-76" target="zyWTynDUfDF3k8TMz7bk-310" edge="1">
                    <mxGeometry relative="1" as="geometry"/>
                </mxCell>
                <mxCell id="cEiwVnGeLsNNu_YkjOEf-86" style="edgeStyle=orthogonalEdgeStyle;rounded=0;orthogonalLoop=1;jettySize=auto;html=1;exitX=0;exitY=0.5;exitDx=0;exitDy=0;entryX=0.61;entryY=1;entryDx=0;entryDy=0;entryPerimeter=0;labelBackgroundColor=none;fontColor=default;backgroundOutline=0;endArrow=none;startFill=0;" parent="1" source="cEiwVnGeLsNNu_YkjOEf-75" target="zyWTynDUfDF3k8TMz7bk-310" edge="1">
                    <mxGeometry relative="1" as="geometry"/>
                </mxCell>
                <mxCell id="cEiwVnGeLsNNu_YkjOEf-91" value="type" style="ellipse;shape=doubleEllipse;margin=3;whiteSpace=wrap;html=1;align=center;labelBackgroundColor=none;rounded=0;backgroundOutline=0;" parent="1" vertex="1">
                    <mxGeometry x="190" y="524" width="100" height="40" as="geometry"/>
                </mxCell>
                <mxCell id="cEiwVnGeLsNNu_YkjOEf-94" style="edgeStyle=orthogonalEdgeStyle;rounded=0;orthogonalLoop=1;jettySize=auto;html=1;exitX=1;exitY=0.5;exitDx=0;exitDy=0;entryX=0.3;entryY=0;entryDx=0;entryDy=0;entryPerimeter=0;labelBackgroundColor=none;fontColor=default;backgroundOutline=0;endArrow=none;startFill=0;" parent="1" source="cEiwVnGeLsNNu_YkjOEf-91" target="zyWTynDUfDF3k8TMz7bk-310" edge="1">
                    <mxGeometry relative="1" as="geometry"/>
                </mxCell>
                <mxCell id="cEiwVnGeLsNNu_YkjOEf-97" style="edgeStyle=orthogonalEdgeStyle;rounded=0;orthogonalLoop=1;jettySize=auto;html=1;exitX=1;exitY=0.5;exitDx=0;exitDy=0;labelBackgroundColor=none;fontColor=default;backgroundOutline=0;endArrow=none;startFill=0;" parent="1" source="cEiwVnGeLsNNu_YkjOEf-95" target="cEiwVnGeLsNNu_YkjOEf-91" edge="1">
                    <mxGeometry relative="1" as="geometry"/>
                </mxCell>
                <mxCell id="cEiwVnGeLsNNu_YkjOEf-95" value="VIP" style="ellipse;whiteSpace=wrap;html=1;align=center;labelBackgroundColor=none;rounded=0;backgroundOutline=0;" parent="1" vertex="1">
                    <mxGeometry x="59" y="480" width="100" height="40" as="geometry"/>
                </mxCell>
                <mxCell id="cEiwVnGeLsNNu_YkjOEf-98" style="edgeStyle=orthogonalEdgeStyle;rounded=0;orthogonalLoop=1;jettySize=auto;html=1;exitX=1;exitY=0.5;exitDx=0;exitDy=0;labelBackgroundColor=none;fontColor=default;backgroundOutline=0;endArrow=none;startFill=0;" parent="1" source="cEiwVnGeLsNNu_YkjOEf-96" target="cEiwVnGeLsNNu_YkjOEf-91" edge="1">
                    <mxGeometry relative="1" as="geometry"/>
                </mxCell>
                <mxCell id="cEiwVnGeLsNNu_YkjOEf-96" value="Normal" style="ellipse;whiteSpace=wrap;html=1;align=center;labelBackgroundColor=none;rounded=0;backgroundOutline=0;" parent="1" vertex="1">
                    <mxGeometry x="33" y="524" width="100" height="40" as="geometry"/>
                </mxCell>
                <mxCell id="8FaIMaNIHu-IjfOQpyqI-1" value="name" style="ellipse;whiteSpace=wrap;html=1;align=center;labelBackgroundColor=none;rounded=0;backgroundOutline=0;" parent="1" vertex="1">
                    <mxGeometry x="824" y="668" width="107" height="40" as="geometry"/>
                </mxCell>
                <mxCell id="8FaIMaNIHu-IjfOQpyqI-5" value="Add" style="ellipse;whiteSpace=wrap;html=1;align=center;labelBackgroundColor=none;rounded=0;backgroundOutline=0;" parent="1" vertex="1">
                    <mxGeometry x="701" y="17" width="100" height="40" as="geometry"/>
                </mxCell>
                <mxCell id="8FaIMaNIHu-IjfOQpyqI-17" style="edgeStyle=orthogonalEdgeStyle;rounded=0;orthogonalLoop=1;jettySize=auto;html=1;exitX=0.5;exitY=0;exitDx=0;exitDy=0;entryX=0.25;entryY=1;entryDx=0;entryDy=0;labelBackgroundColor=none;fontColor=default;backgroundOutline=0;endArrow=none;startFill=0;" parent="1" source="8FaIMaNIHu-IjfOQpyqI-14" target="zyWTynDUfDF3k8TMz7bk-311" edge="1">
                    <mxGeometry relative="1" as="geometry"/>
                </mxCell>
                <mxCell id="8FaIMaNIHu-IjfOQpyqI-14" value="NO-of-tic" style="ellipse;whiteSpace=wrap;html=1;align=center;labelBackgroundColor=none;rounded=0;backgroundOutline=0;" parent="1" vertex="1">
                    <mxGeometry x="628" y="708" width="100" height="41" as="geometry"/>
                </mxCell>
                <mxCell id="8FaIMaNIHu-IjfOQpyqI-21" style="edgeStyle=orthogonalEdgeStyle;rounded=0;orthogonalLoop=1;jettySize=auto;html=1;exitX=1;exitY=0;exitDx=0;exitDy=0;entryX=0.07;entryY=0.975;entryDx=0;entryDy=0;entryPerimeter=0;labelBackgroundColor=none;fontColor=default;backgroundOutline=0;endArrow=none;startFill=0;" parent="1" source="8FaIMaNIHu-IjfOQpyqI-15" target="zyWTynDUfDF3k8TMz7bk-311" edge="1">
                    <mxGeometry relative="1" as="geometry"/>
                </mxCell>
                <mxCell id="8FaIMaNIHu-IjfOQpyqI-15" value="Ph-NO" style="ellipse;whiteSpace=wrap;html=1;align=center;labelBackgroundColor=none;rounded=0;backgroundOutline=0;" parent="1" vertex="1">
                    <mxGeometry x="572" y="634" width="100" height="40" as="geometry"/>
                </mxCell>
                <mxCell id="-8xyfi9ZjJV_24Lj2asy-2" style="edgeStyle=orthogonalEdgeStyle;rounded=0;orthogonalLoop=1;jettySize=auto;html=1;exitX=0;exitY=0;exitDx=0;exitDy=0;entryX=0.85;entryY=0.95;entryDx=0;entryDy=0;entryPerimeter=0;labelBackgroundColor=none;fontColor=default;backgroundOutline=0;endArrow=none;startFill=0;" parent="1" source="8FaIMaNIHu-IjfOQpyqI-1" target="zyWTynDUfDF3k8TMz7bk-311" edge="1">
                    <mxGeometry relative="1" as="geometry"/>
                </mxCell>
                <mxCell id="-8xyfi9ZjJV_24Lj2asy-7" value="rent" style="ellipse;whiteSpace=wrap;html=1;align=center;labelBackgroundColor=none;rounded=0;backgroundOutline=0;" parent="1" vertex="1">
                    <mxGeometry x="757" y="541" width="100" height="40" as="geometry"/>
                </mxCell>
                <mxCell id="-8xyfi9ZjJV_24Lj2asy-8" value="weight" style="ellipse;whiteSpace=wrap;html=1;align=center;labelBackgroundColor=none;rounded=0;backgroundOutline=0;" parent="1" vertex="1">
                    <mxGeometry x="947" y="574" width="100" height="34" as="geometry"/>
                </mxCell>
                <mxCell id="-8xyfi9ZjJV_24Lj2asy-9" value="Description" style="ellipse;whiteSpace=wrap;html=1;align=center;labelBackgroundColor=none;rounded=0;backgroundOutline=0;" parent="1" vertex="1">
                    <mxGeometry x="831" y="594" width="100" height="40" as="geometry"/>
                </mxCell>
                <mxCell id="-8xyfi9ZjJV_24Lj2asy-13" style="edgeStyle=orthogonalEdgeStyle;rounded=0;orthogonalLoop=1;jettySize=auto;html=1;exitX=1;exitY=0.5;exitDx=0;exitDy=0;entryX=0.43;entryY=1;entryDx=0;entryDy=0;entryPerimeter=0;labelBackgroundColor=none;fontColor=default;backgroundOutline=0;endArrow=none;startFill=0;" parent="1" source="-8xyfi9ZjJV_24Lj2asy-7" target="zyWTynDUfDF3k8TMz7bk-312" edge="1">
                    <mxGeometry relative="1" as="geometry"/>
                </mxCell>
                <mxCell id="-8xyfi9ZjJV_24Lj2asy-14" style="edgeStyle=orthogonalEdgeStyle;rounded=0;orthogonalLoop=1;jettySize=auto;html=1;exitX=0.5;exitY=0;exitDx=0;exitDy=0;entryX=0.62;entryY=1;entryDx=0;entryDy=0;entryPerimeter=0;labelBackgroundColor=none;fontColor=default;backgroundOutline=0;endArrow=none;startFill=0;" parent="1" source="-8xyfi9ZjJV_24Lj2asy-9" target="zyWTynDUfDF3k8TMz7bk-312" edge="1">
                    <mxGeometry relative="1" as="geometry"/>
                </mxCell>
                <mxCell id="-8xyfi9ZjJV_24Lj2asy-15" style="edgeStyle=orthogonalEdgeStyle;rounded=0;orthogonalLoop=1;jettySize=auto;html=1;exitX=0;exitY=0;exitDx=0;exitDy=0;entryX=0.69;entryY=0.975;entryDx=0;entryDy=0;entryPerimeter=0;labelBackgroundColor=none;fontColor=default;backgroundOutline=0;endArrow=none;startFill=0;" parent="1" source="-8xyfi9ZjJV_24Lj2asy-8" target="zyWTynDUfDF3k8TMz7bk-312" edge="1">
                    <mxGeometry relative="1" as="geometry"/>
                </mxCell>
                <mxCell id="-8xyfi9ZjJV_24Lj2asy-24" value="Company" style="whiteSpace=wrap;html=1;align=center;" parent="1" vertex="1">
                    <mxGeometry x="354" y="120" width="100" height="40" as="geometry"/>
                </mxCell>
                <mxCell id="dd1BdkEe9ov50hIlFdav-10" style="edgeStyle=orthogonalEdgeStyle;rounded=0;orthogonalLoop=1;jettySize=auto;html=1;exitX=0;exitY=1;exitDx=0;exitDy=0;entryX=0.5;entryY=0;entryDx=0;entryDy=0;endArrow=none;startFill=0;" parent="1" source="-8xyfi9ZjJV_24Lj2asy-25" target="-8xyfi9ZjJV_24Lj2asy-24" edge="1">
                    <mxGeometry relative="1" as="geometry"/>
                </mxCell>
                <mxCell id="-8xyfi9ZjJV_24Lj2asy-25" value="Add" style="ellipse;whiteSpace=wrap;html=1;align=center;" parent="1" vertex="1">
                    <mxGeometry x="377" y="18" width="100" height="40" as="geometry"/>
                </mxCell>
                <mxCell id="dd1BdkEe9ov50hIlFdav-5" style="edgeStyle=orthogonalEdgeStyle;rounded=0;orthogonalLoop=1;jettySize=auto;html=1;exitX=1;exitY=1;exitDx=0;exitDy=0;entryX=0.25;entryY=0;entryDx=0;entryDy=0;endArrow=none;startFill=0;" parent="1" source="-8xyfi9ZjJV_24Lj2asy-26" target="-8xyfi9ZjJV_24Lj2asy-24" edge="1">
                    <mxGeometry relative="1" as="geometry"/>
                </mxCell>
                <mxCell id="-8xyfi9ZjJV_24Lj2asy-26" value="Name" style="ellipse;whiteSpace=wrap;html=1;align=center;" parent="1" vertex="1">
                    <mxGeometry x="275" y="32" width="100" height="40" as="geometry"/>
                </mxCell>
                <mxCell id="dd1BdkEe9ov50hIlFdav-11" style="edgeStyle=orthogonalEdgeStyle;rounded=0;orthogonalLoop=1;jettySize=auto;html=1;exitX=0;exitY=1;exitDx=0;exitDy=0;entryX=1;entryY=0;entryDx=0;entryDy=0;endArrow=none;startFill=0;" parent="1" source="-8xyfi9ZjJV_24Lj2asy-27" target="-8xyfi9ZjJV_24Lj2asy-24" edge="1">
                    <mxGeometry relative="1" as="geometry">
                        <Array as="points">
                            <mxPoint x="439" y="70"/>
                        </Array>
                    </mxGeometry>
                </mxCell>
                <mxCell id="-8xyfi9ZjJV_24Lj2asy-27" value="description" style="ellipse;whiteSpace=wrap;html=1;align=center;" parent="1" vertex="1">
                    <mxGeometry x="474" y="36" width="100" height="40" as="geometry"/>
                </mxCell>
                <mxCell id="dd1BdkEe9ov50hIlFdav-9" value="" style="edgeStyle=entityRelationEdgeStyle;fontSize=12;html=1;endArrow=ERzeroToMany;startArrow=ERmandOne;rounded=0;entryX=1;entryY=0.5;entryDx=0;entryDy=0;exitX=0;exitY=0.5;exitDx=0;exitDy=0;endFill=0;" parent="1" source="-8xyfi9ZjJV_24Lj2asy-24" target="zyWTynDUfDF3k8TMz7bk-304" edge="1">
                    <mxGeometry width="100" height="100" relative="1" as="geometry">
                        <mxPoint x="255" y="249" as="sourcePoint"/>
                        <mxPoint x="355" y="149" as="targetPoint"/>
                    </mxGeometry>
                </mxCell>
                <mxCell id="dd1BdkEe9ov50hIlFdav-14" value="" style="edgeStyle=entityRelationEdgeStyle;fontSize=12;html=1;endArrow=ERzeroToMany;startArrow=ERmandOne;rounded=0;entryX=0;entryY=0.5;entryDx=0;entryDy=0;exitX=1;exitY=0.5;exitDx=0;exitDy=0;" parent="1" source="-8xyfi9ZjJV_24Lj2asy-24" target="zyWTynDUfDF3k8TMz7bk-305" edge="1">
                    <mxGeometry width="100" height="100" relative="1" as="geometry">
                        <mxPoint x="457" y="249" as="sourcePoint"/>
                        <mxPoint x="557" y="149" as="targetPoint"/>
                    </mxGeometry>
                </mxCell>
                <mxCell id="dd1BdkEe9ov50hIlFdav-17" style="edgeStyle=orthogonalEdgeStyle;rounded=0;orthogonalLoop=1;jettySize=auto;html=1;exitX=0.25;exitY=1;exitDx=0;exitDy=0;entryX=0.82;entryY=-0.025;entryDx=0;entryDy=0;entryPerimeter=0;endArrow=ERmandOne;endFill=0;startArrow=ERmandOne;startFill=0;" parent="1" source="zyWTynDUfDF3k8TMz7bk-305" target="zyWTynDUfDF3k8TMz7bk-309" edge="1">
                    <mxGeometry relative="1" as="geometry">
                        <Array as="points">
                            <mxPoint x="590" y="218"/>
                            <mxPoint x="325" y="218"/>
                        </Array>
                    </mxGeometry>
                </mxCell>
                <mxCell id="dd1BdkEe9ov50hIlFdav-23" style="edgeStyle=orthogonalEdgeStyle;rounded=0;orthogonalLoop=1;jettySize=auto;html=1;exitX=0.5;exitY=1;exitDx=0;exitDy=0;entryX=0.32;entryY=0.075;entryDx=0;entryDy=0;entryPerimeter=0;endArrow=none;startFill=0;" parent="1" source="cEiwVnGeLsNNu_YkjOEf-46" target="zyWTynDUfDF3k8TMz7bk-308" edge="1">
                    <mxGeometry relative="1" as="geometry"/>
                </mxCell>
                <mxCell id="dd1BdkEe9ov50hIlFdav-24" style="edgeStyle=orthogonalEdgeStyle;rounded=0;orthogonalLoop=1;jettySize=auto;html=1;exitX=1;exitY=0.5;exitDx=0;exitDy=0;entryX=0.17;entryY=1.05;entryDx=0;entryDy=0;entryPerimeter=0;endArrow=ERzeroToMany;endFill=0;startArrow=ERmandOne;startFill=0;" parent="1" source="zyWTynDUfDF3k8TMz7bk-308" target="d92FIJJa25exs1OfrTLI-37" edge="1">
                    <mxGeometry relative="1" as="geometry"/>
                </mxCell>
                <mxCell id="dd1BdkEe9ov50hIlFdav-25" value="Tick-ID" style="ellipse;whiteSpace=wrap;html=1;align=center;fontStyle=4;" parent="1" vertex="1">
                    <mxGeometry x="162" y="725" width="100" height="40" as="geometry"/>
                </mxCell>
                <mxCell id="dd1BdkEe9ov50hIlFdav-26" style="edgeStyle=orthogonalEdgeStyle;rounded=0;orthogonalLoop=1;jettySize=auto;html=1;exitX=0.75;exitY=1;exitDx=0;exitDy=0;entryX=0.44;entryY=0;entryDx=0;entryDy=0;entryPerimeter=0;endArrow=ERzeroToMany;endFill=0;startArrow=ERmandOne;startFill=0;" parent="1" source="zyWTynDUfDF3k8TMz7bk-309" target="zyWTynDUfDF3k8TMz7bk-310" edge="1">
                    <mxGeometry relative="1" as="geometry"/>
                </mxCell>
                <mxCell id="dd1BdkEe9ov50hIlFdav-31" style="edgeStyle=orthogonalEdgeStyle;rounded=0;orthogonalLoop=1;jettySize=auto;html=1;exitX=0.5;exitY=1;exitDx=0;exitDy=0;entryX=0.601;entryY=0.007;entryDx=0;entryDy=0;entryPerimeter=0;endArrow=ERmandOne;endFill=0;startArrow=ERmandOne;startFill=0;" parent="1" source="d92FIJJa25exs1OfrTLI-37" target="zyWTynDUfDF3k8TMz7bk-310" edge="1">
                    <mxGeometry relative="1" as="geometry">
                        <Array as="points">
                            <mxPoint x="881" y="470"/>
                            <mxPoint x="354" y="470"/>
                        </Array>
                        <mxPoint x="882" y="259" as="sourcePoint"/>
                        <mxPoint x="357.9999999999998" y="601" as="targetPoint"/>
                    </mxGeometry>
                </mxCell>
                <mxCell id="dd1BdkEe9ov50hIlFdav-33" style="edgeStyle=orthogonalEdgeStyle;rounded=0;orthogonalLoop=1;jettySize=auto;html=1;exitX=0.5;exitY=1;exitDx=0;exitDy=0;entryX=0.888;entryY=0.013;entryDx=0;entryDy=0;entryPerimeter=0;endArrow=none;startFill=0;" parent="1" source="8FaIMaNIHu-IjfOQpyqI-5" target="zyWTynDUfDF3k8TMz7bk-305" edge="1">
                    <mxGeometry relative="1" as="geometry"/>
                </mxCell>
                <mxCell id="dd1BdkEe9ov50hIlFdav-34" style="edgeStyle=orthogonalEdgeStyle;rounded=0;orthogonalLoop=1;jettySize=auto;html=1;exitX=1;exitY=0;exitDx=0;exitDy=0;entryX=0.25;entryY=1;entryDx=0;entryDy=0;endArrow=none;startFill=0;" parent="1" source="dd1BdkEe9ov50hIlFdav-25" target="zyWTynDUfDF3k8TMz7bk-310" edge="1">
                    <mxGeometry relative="1" as="geometry"/>
                </mxCell>
                <mxCell id="dd1BdkEe9ov50hIlFdav-35" value="bus-NO" style="ellipse;whiteSpace=wrap;html=1;align=center;fontStyle=4;" parent="1" vertex="1">
                    <mxGeometry x="360" y="723" width="100" height="40" as="geometry"/>
                </mxCell>
                <mxCell id="dd1BdkEe9ov50hIlFdav-36" style="edgeStyle=orthogonalEdgeStyle;rounded=0;orthogonalLoop=1;jettySize=auto;html=1;exitX=0;exitY=0.5;exitDx=0;exitDy=0;entryX=0.434;entryY=0.946;entryDx=0;entryDy=0;entryPerimeter=0;endArrow=none;startFill=0;" parent="1" source="dd1BdkEe9ov50hIlFdav-35" target="zyWTynDUfDF3k8TMz7bk-310" edge="1">
                    <mxGeometry relative="1" as="geometry"/>
                </mxCell>
                <mxCell id="dd1BdkEe9ov50hIlFdav-37" style="edgeStyle=orthogonalEdgeStyle;rounded=0;orthogonalLoop=1;jettySize=auto;html=1;exitX=0;exitY=0.5;exitDx=0;exitDy=0;entryX=0.851;entryY=1.004;entryDx=0;entryDy=0;entryPerimeter=0;endArrow=none;startFill=0;" parent="1" source="cEiwVnGeLsNNu_YkjOEf-74" target="zyWTynDUfDF3k8TMz7bk-310" edge="1">
                    <mxGeometry relative="1" as="geometry"/>
                </mxCell>
                <mxCell id="IAW-wRPCPbgMJG5teW-d-5" value="&lt;span style=&quot;border-bottom: 1px dotted&quot;&gt;Tick-ID&lt;/span&gt;" style="ellipse;whiteSpace=wrap;html=1;align=center;" parent="1" vertex="1">
                    <mxGeometry x="740" y="734" width="91" height="40" as="geometry"/>
                </mxCell>
                <mxCell id="IAW-wRPCPbgMJG5teW-d-6" style="edgeStyle=orthogonalEdgeStyle;rounded=0;orthogonalLoop=1;jettySize=auto;html=1;exitX=0;exitY=0;exitDx=0;exitDy=0;entryX=0.687;entryY=1.004;entryDx=0;entryDy=0;entryPerimeter=0;endArrow=none;startFill=0;" parent="1" source="IAW-wRPCPbgMJG5teW-d-5" target="zyWTynDUfDF3k8TMz7bk-311" edge="1">
                    <mxGeometry relative="1" as="geometry"/>
                </mxCell>
                <mxCell id="IAW-wRPCPbgMJG5teW-d-7" value="&lt;span style=&quot;border-bottom: 1px dotted&quot;&gt;Tick-ID&lt;/span&gt;" style="ellipse;whiteSpace=wrap;html=1;align=center;" parent="1" vertex="1">
                    <mxGeometry x="955" y="524" width="100" height="40" as="geometry"/>
                </mxCell>
                <mxCell id="IAW-wRPCPbgMJG5teW-d-8" style="edgeStyle=orthogonalEdgeStyle;rounded=0;orthogonalLoop=1;jettySize=auto;html=1;exitX=0;exitY=0.5;exitDx=0;exitDy=0;entryX=0.828;entryY=1;entryDx=0;entryDy=0;entryPerimeter=0;endArrow=none;startFill=0;" parent="1" source="IAW-wRPCPbgMJG5teW-d-7" target="zyWTynDUfDF3k8TMz7bk-312" edge="1">
                    <mxGeometry relative="1" as="geometry"/>
                </mxCell>
                <mxCell id="3" value="" style="edgeStyle=orthogonalEdgeStyle;rounded=0;orthogonalLoop=1;jettySize=auto;html=1;exitX=1;exitY=0.5;exitDx=0;exitDy=0;labelBackgroundColor=none;fontColor=default;backgroundOutline=0;endArrow=none;startFill=0;entryX=0.5;entryY=0;entryDx=0;entryDy=0;" parent="1" source="cEiwVnGeLsNNu_YkjOEf-5" target="cEiwVnGeLsNNu_YkjOEf-2" edge="1">
                    <mxGeometry relative="1" as="geometry">
                        <mxPoint x="258" y="169" as="targetPoint"/>
                        <mxPoint x="97" y="138" as="sourcePoint"/>
                        <Array as="points">
                            <mxPoint x="150" y="148"/>
                            <mxPoint x="150" y="160"/>
                        </Array>
                    </mxGeometry>
                </mxCell>
                <mxCell id="zyWTynDUfDF3k8TMz7bk-304" value="User Login" style="whiteSpace=wrap;html=1;align=center;labelBackgroundColor=none;rounded=0;backgroundOutline=0;" parent="1" vertex="1">
                    <mxGeometry x="172" y="99" width="100" height="40" as="geometry"/>
                </mxCell>
            </root>
        </mxGraphModel>
    </diagram>
    <diagram id="FpyMbjoV_wxxPCw1IR2T" name="Page-2">
        <mxGraphModel dx="135" dy="609" grid="1" gridSize="10" guides="1" tooltips="1" connect="1" arrows="1" fold="1" page="1" pageScale="1" pageWidth="827" pageHeight="1169" math="0" shadow="0">
            <root>
                <mxCell id="0"/>
                <mxCell id="1" parent="0"/>
                <mxCell id="4cxlQ7VE5eeR0wVPgAYP-1" value="Text" style="text;html=1;align=center;verticalAlign=middle;resizable=0;points=[];autosize=1;strokeColor=none;fillColor=none;" vertex="1" parent="1">
                    <mxGeometry x="666" y="115" width="50" height="30" as="geometry"/>
                </mxCell>
            </root>
        </mxGraphModel>
    </diagram>
</mxfile>